<svg xmlns="http://www.w3.org/2000/svg" width="702" height="992" viewBox="0 0 702 992">
    <path fill="#f03030c4" fill-rule="evenodd" d="M630.57 990.697c-101.386-8.027-183.447-87.17-237.491-173.36-65.181-103.952-105.161-224.42-190.569-315.045-56.209-59.64-132.9-104.492-172.8-178.173-45.507-84.04-35.723-186.941 15.023-266.22 73.926-115.488 213.81-178.54 345.958-195.444 162.68-20.814 337.154 15.61 490.652 69.325 112.315 39.302 229.521 122.837 214.74 256.414-13.972 126.248-127.72 214.697-187.424 319.362-29.958 52.513-45.28 113.287-43.794 173.733 1.101 44.934 11.232 90.258 2.863 134.42-18.615 98.242-118.112 172.833-216.357 175.514-6.95.191-13.892.02-20.8-.526z"/>
</svg>